# MagicaVoxel @ ephtracy

# material
mtllib road.mtl
usemtl palette

# normals
vn -1 0 0
vn 1 0 0
vn 0 0 1
vn 0 0 -1
vn 0 -1 0
vn 0 1 0

# texcoords
vt 0.958984 0.5
vt 0.978516 0.5
vt 0.994141 0.5

# verts
v -60 0 40
v -60 0 -40
v -60 4 40
v -60 4 31
v -60 4 2
v -60 4 -3
v -60 4 -32
v -60 4 -40
v -60 5 40
v -60 5 31
v -60 5 2
v -60 5 -3
v -60 5 -32
v -60 5 -40
v 60 0 40
v 60 0 -40
v 60 4 40
v 60 4 31
v 60 4 2
v 60 4 -3
v 60 4 -32
v 60 4 -40
v 60 5 40
v 60 5 31
v 60 5 2
v 60 5 -3
v 60 5 -32
v 60 5 -40
v -60 0 40
v -60 4 40
v -60 5 40
v 60 0 40
v 60 4 40
v 60 5 40
v -60 0 -40
v -60 4 -40
v -60 5 -40
v 60 0 -40
v 60 4 -40
v 60 5 -40
v -60 0 40
v 60 0 40
v -60 0 -40
v 60 0 -40
v -60 5 40
v 60 5 40
v -60 5 31
v 60 5 31
v -60 5 2
v -38 5 2
v -33 5 2
v -10 5 2
v -6 5 2
v 23 5 2
v 28 5 2
v 60 5 2
v -60 5 -3
v -38 5 -3
v -33 5 -3
v -10 5 -3
v -6 5 -3
v 23 5 -3
v 28 5 -3
v 60 5 -3
v -60 5 -32
v 60 5 -32
v -60 5 -40
v 60 5 -40

# faces
f 3/3/1 2/3/1 1/3/1
f 4/3/1 2/3/1 3/3/1
f 5/3/1 2/3/1 4/3/1
f 6/3/1 2/3/1 5/3/1
f 7/3/1 2/3/1 6/3/1
f 8/3/1 2/3/1 7/3/1
f 9/2/1 4/2/1 3/2/1
f 10/3/1 5/3/1 4/3/1
f 10/2/1 4/2/1 9/2/1
f 11/1/1 6/1/1 5/1/1
f 11/3/1 5/3/1 10/3/1
f 12/3/1 7/3/1 6/3/1
f 12/1/1 6/1/1 11/1/1
f 13/2/1 8/2/1 7/2/1
f 13/3/1 7/3/1 12/3/1
f 14/2/1 8/2/1 13/2/1
f 15/3/2 16/3/2 17/3/2
f 17/3/2 16/3/2 18/3/2
f 18/3/2 16/3/2 19/3/2
f 19/3/2 16/3/2 20/3/2
f 20/3/2 16/3/2 21/3/2
f 21/3/2 16/3/2 22/3/2
f 17/2/2 18/2/2 23/2/2
f 18/3/2 19/3/2 24/3/2
f 23/2/2 18/2/2 24/2/2
f 19/1/2 20/1/2 25/1/2
f 24/3/2 19/3/2 25/3/2
f 20/3/2 21/3/2 26/3/2
f 25/1/2 20/1/2 26/1/2
f 21/2/2 22/2/2 27/2/2
f 26/3/2 21/3/2 27/3/2
f 27/2/2 22/2/2 28/2/2
f 32/3/3 30/3/3 29/3/3
f 33/2/3 31/2/3 30/2/3
f 33/3/3 30/3/3 32/3/3
f 34/2/3 31/2/3 33/2/3
f 35/3/4 36/3/4 38/3/4
f 36/2/4 37/2/4 39/2/4
f 38/3/4 36/3/4 39/3/4
f 39/2/4 37/2/4 40/2/4
f 43/3/5 42/3/5 41/3/5
f 44/3/5 42/3/5 43/3/5
f 45/2/6 46/2/6 47/2/6
f 47/2/6 46/2/6 48/2/6
f 47/3/6 48/3/6 49/3/6
f 49/3/6 48/3/6 50/3/6
f 50/3/6 48/3/6 51/3/6
f 51/3/6 48/3/6 52/3/6
f 52/3/6 48/3/6 53/3/6
f 53/3/6 48/3/6 54/3/6
f 54/3/6 48/3/6 55/3/6
f 55/3/6 48/3/6 56/3/6
f 49/1/6 50/1/6 57/1/6
f 50/3/6 51/3/6 58/3/6
f 57/1/6 50/1/6 58/1/6
f 51/1/6 52/1/6 59/1/6
f 58/3/6 51/3/6 59/3/6
f 52/3/6 53/3/6 60/3/6
f 59/1/6 52/1/6 60/1/6
f 53/1/6 54/1/6 61/1/6
f 60/3/6 53/3/6 61/3/6
f 54/3/6 55/3/6 62/3/6
f 61/1/6 54/1/6 62/1/6
f 55/1/6 56/1/6 63/1/6
f 62/3/6 55/3/6 63/3/6
f 63/1/6 56/1/6 64/1/6
f 57/3/6 58/3/6 65/3/6
f 58/3/6 59/3/6 65/3/6
f 63/3/6 64/3/6 65/3/6
f 62/3/6 63/3/6 65/3/6
f 61/3/6 62/3/6 65/3/6
f 60/3/6 61/3/6 65/3/6
f 59/3/6 60/3/6 65/3/6
f 65/3/6 64/3/6 66/3/6
f 65/2/6 66/2/6 67/2/6
f 67/2/6 66/2/6 68/2/6
